<?xml version="1.0" encoding="UTF-8"?>
<svg id="_Слой_2" data-name="Слой 2" xmlns="http://www.w3.org/2000/svg" viewBox="0 0 293.39 64.66">
  <defs>
    <style>
      .cls-1 {
        fill: #fff;
      }

      .cls-2 {
        fill: #ffc326;
      }
    </style>
  </defs>
  <polygon class="cls-1" points="88.35 61.04 72.01 61.04 62.97 45.96 54.49 31.81 45.87 16.87 28.62 16.87 20 31.81 28.62 46.74 45.87 46.74 52.27 35.66 60.75 49.81 54.19 61.16 20.3 61.16 3.35 31.81 20.3 2.46 54.19 2.46 71.14 31.81 88.35 61.04"/>
  <path class="cls-2" d="M94.77,61.08l14.55-42.18h14.4l14.58,42.18h-11.44l-2.13-7.55h-16.33l-2.19,7.55h-11.44Zm16.1-15.76h11.44l-4.29-13.91c-.13-.42-.32-1.1-.55-2.05-.23-.94-.53-2.15-.89-3.63-.25,1.04-.49,2.03-.73,2.97-.24,.94-.48,1.84-.73,2.71l-4.23,13.91Z"/>
  <path class="cls-2" d="M139.9,61.08V16.42h10.28V61.08h-10.28Z"/>
  <path class="cls-2" d="M158.03,61.08v-21.84h-4.38v-7.26h4.38v-5.96c0-3.38,.92-5.92,2.77-7.63,1.84-1.71,4.6-2.56,8.27-2.56,.52,0,1.14,.05,1.86,.14,.72,.1,1.49,.23,2.32,.4v7.84c-.46-.17-.89-.3-1.28-.39-.39-.09-.75-.13-1.08-.13-.96,0-1.66,.29-2.1,.86-.44,.58-.66,1.51-.66,2.79v4.64h5.13v7.26h-5.13v21.84h-10.08Z"/>
  <path class="cls-2" d="M199.45,31.98v4.79c-1.14-1.94-2.49-3.38-4.08-4.31-1.58-.93-3.47-1.4-5.66-1.4-4.11,0-7.38,1.4-9.81,4.19-2.43,2.8-3.64,6.57-3.64,11.31s1.16,8.56,3.48,11.39c2.33,2.84,5.43,4.25,9.31,4.25,2.26,0,4.24-.47,5.92-1.41s3.19-2.42,4.54-4.44v4.73h9.42V31.98h-9.48Zm.35,16.13c-.02,.18-.05,.35-.11,.52-.26,1.29-.8,2.36-1.6,3.23-.79,.86-1.78,1.44-2.95,1.73-.71,.24-1.47,.37-2.26,.37-3.88,0-7.03-3.14-7.03-7.03,0-1.4,.41-2.7,1.12-3.79,1.24-1.95,3.43-3.24,5.91-3.24,3.82,0,6.94,3.06,7.02,6.86,.01,.06,.01,.11,.01,.17,0,.4-.03,.8-.11,1.18Z"/>
  <path class="cls-2" d="M216.26,61.08v-21.84h-4.35v-7.26h4.35v-8.67h10.11v8.67h4.35v7.26h-4.35v21.84h-10.11Z"/>
  <path class="cls-2" d="M256.18,31.52l-.06,9.33c-.61-.21-1.22-.36-1.81-.46-.6-.1-1.17-.14-1.73-.14-2.5,0-4.42,.76-5.78,2.29-1.35,1.53-2.03,3.69-2.03,6.5v12.04h-10.2V31.98h9.68v6.86c1-2.5,2.36-4.37,4.09-5.62,1.3-.94,2.8-1.52,4.5-1.76,.98-.13,1.98-.09,2.96,.01l.37,.04Z"/>
  <path class="cls-2" d="M290.03,48.57v-.49c0-5.28-1.39-9.44-4.18-12.47-2.78-3.04-6.59-4.55-11.41-4.55s-8.56,1.5-11.62,4.49c-3.07,3-4.6,6.76-4.6,11.29s1.53,8.32,4.6,11.14c3.06,2.81,7.13,4.22,12.2,4.22,3.4,0,6.37-.44,8.61-1.82,2.71-1.66,4.47-5.15,5.28-7.93h-8.36c-.26,.55-.62,1.05-1.05,1.47-.59,.56-1.09,.96-1.73,1.22,0,.01-.02,.02-.04,.02-.07,.03-.14,.06-.22,.08-.55,.23-1.22,.31-1.92,.34h-.11c-.34,.02-.69,.02-1.04,.02-.1,0-.21,0-.31-.01-1.92-.05-3.43-.66-4.5-1.82-1.13-1.22-1.71-2.95-1.73-5.2h22.13Zm-21.9-5.79c.33-1.82,.99-3.19,1.98-4.1,.99-.91,2.32-1.37,3.99-1.37,1.55,0,2.86,.5,3.93,1.5s1.69,2.32,1.89,3.97h-11.79Z"/>
</svg>
